<svg xmlns="http://www.w3.org/2000/svg" viewBox="0 0 170 170"><path d="M118.8 106c12.8-7 22.7-19.1 26.8-34.2 8-29.6-9.7-60.2-39.2-68.1S46.2 13.4 38.3 43c-4.2 15.8-1.1 32 7.3 44.8l-34.8 34.8L33 130l8 21.8 37.1-38.3 13 51.8 17.9-14.9 22.9 4.8-13.1-49.2zm-75 22.2l-2.2-6.8-7.8-1.9L54.1 98c3.4 3.2 7.3 6 11.6 8.3l-21.9 21.9zm35.6-23.8C53.5 97.5 38.1 70.8 45 44.9s33.7-41.4 59.5-34.5 41.3 33.6 34.4 59.5c-6.9 26-33.6 41.4-59.5 34.5zm26.4 34.1l-5.3 4.8-8.1-30.3c4.8-.1 9.5-.7 14.1-1.9l7 29.8-7.7-2.4zm-3.1-121.3c-22.2-6-45.1 7.3-51.1 29.5s7.3 45.1 29.5 51.1 45.1-7.3 51.1-29.5c6-22.3-7.2-45.2-29.5-51.1zm12.4 41.4l-6.6 3.7c-2.7 1.5-5.1 5.2-5.3 8.3l-.7 7.5c-.3 3-2.4 3.8-4.6 1.8l-5.6-5.1c-2.2-2.1-6.5-3.2-9.5-2.5l-7.4 1.6c-3 .7-4.4-1.1-3.1-3.8l3.2-6.8c1.3-2.8 1-7.2-.5-9.9l-3.8-6.5c-1.6-2.6-.4-4.4 2.7-4.2l7.5.9c3 .4 7.2-1.2 9.2-3.5l4.9-5.7c2.1-2.2 4.2-1.7 4.7 1.3l1.4 7.4c.7 3 3.4 6.4 6.2 7.7l7 3c2.9 1 3 3.2.3 4.8z"/></svg>