<svg xmlns="http://www.w3.org/2000/svg" viewBox="0 0 125.5 160.00001525878906"><path d="M100.1 95.6c10.5-10.1 17-24.3 17-40C117.2 24.9 92.2 0 61.6 0S6 24.9 6 55.6C6 72 13.2 86.8 24.6 97L0 139.6l23.4 1.3 13.4 19 25.9-46.6 26 46.7 13.4-19 23.4-1.3-25.4-44.1zm-66.7 40.8l-3.9-6-8 .2 14-26c4.1 2.2 8.6 3.9 13.3 5l-15.4 26.8zm28.2-32.2C34.8 104.2 13 82.4 13 55.6S34.8 6.9 61.6 6.9s48.6 21.8 48.6 48.6c0 26.9-21.8 48.7-48.6 48.7zM96 130.3l-3.9 6-15.7-27.2c4.6-1.3 9-3.1 13.1-5.5l14.5 27-8-.3zM61.6 13.9c-23 0-41.7 18.7-41.7 41.7s18.7 41.7 41.7 41.7 41.7-18.7 41.7-41.7-18.7-41.7-41.7-41.7zm22.7 36.8L78.9 56c-2.2 2.1-3.6 6.3-3 9.4l1.3 7.4c.5 3-1.3 4.3-4 2.9l-6.7-3.5c-2.7-1.4-7.1-1.4-9.8 0L50 75.6c-2.7 1.4-4.5.1-4-2.9l1.3-7.4c.5-3-.9-7.2-3-9.4l-5.4-5.3c-2.2-2.1-1.5-4.2 1.5-4.7l7.5-1.1c3-.4 6.6-3 8-5.8l3.3-6.8c1.4-2.7 3.6-2.7 4.9 0l3.3 6.8c1.4 2.7 4.9 5.3 8 5.8l7.5 1.1c2.9.5 3.6 2.6 1.4 4.8z"/></svg>