<svg xmlns="http://www.w3.org/2000/svg" viewBox="0 0 170 170"><path d="M126.2 83.7c6.4-13.1 7.7-28.6 2.3-43.4C118.1 11.5 86.1-3.4 57.3 7.1S13.6 49.5 24.1 78.3a55.12 55.12 0 0 0 31.6 32.5l-8.5 48.4 22.4-6.8 19.1 13.3 8.4-52.6 40.4 35 6.1-22.4 21.5-9.2-38.9-32.8zm-48.7 61.2l-5.7-4.3-7.4 2.9 4.3-29.2c4.6.7 9.4.7 14.2.1l-5.4 30.5zM93 105c-25.2 9.2-53.1-3.9-62.3-29s3.8-53.2 29-62.4 53.1 3.9 62.3 29c9.2 25.3-3.8 53.2-29 62.4zm41.2 12.7l-1.6 7-24.1-20.2c3.9-2.8 7.4-6 10.4-9.6l22.9 20.4-7.6 2.4zM62.1 20.1C40.5 28 29.3 52 37.2 73.6S69 106.4 90.6 98.5s32.8-31.8 24.9-53.4-31.8-32.8-53.4-25zM96 47l-3.3 6.8c-1.3 2.7-1.2 7.2.4 9.9l3.8 6.5c1.5 2.6.2 4.5-2.8 4.1l-7.5-1c-3-.4-7.2 1.1-9.2 3.4l-5.1 5.5c-2.1 2.2-4.2 1.6-4.8-1.4l-1.3-7.4c-.6-3-3.3-6.5-6-7.8l-6.9-3.1c-2.8-1.2-2.8-3.4-.2-4.9l6.7-3.6c2.7-1.4 5.2-5.1 5.5-8.2l.8-7.5c.4-3 2.5-3.8 4.6-1.7l5.4 5.3c2.2 2.1 6.4 3.3 9.5 2.7l7.4-1.5c3-.7 4.3 1 3 3.9z"/></svg>