<?xml version="1.0" encoding="utf-8"?>
<!-- Generator: Adobe Illustrator 21.0.0, SVG Export Plug-In . SVG Version: 6.00 Build 0)  -->
<svg version="1.1" id="Layer_1" xmlns="http://www.w3.org/2000/svg" xmlns:xlink="http://www.w3.org/1999/xlink" x="0px" y="0px"
	 viewBox="0 0 170 170" style="enable-background:new 0 0 170 170;" xml:space="preserve">
<g>
	<path d="M126.2,83.7c6.4-13.1,7.7-28.6,2.3-43.4C118.1,11.5,86.1-3.4,57.3,7.1S13.6,49.5,24.1,78.3c5.6,15.4,17.4,26.9,31.6,32.5
		l-8.5,48.4l22.4-6.8l19.1,13.3l8.4-52.6l40.4,35l6.1-22.4l21.5-9.2L126.2,83.7L126.2,83.7z M77.5,144.9l-5.7-4.3l-7.4,2.9l4.3-29.2
		c4.6,0.7,9.4,0.7,14.2,0.1L77.5,144.9z M93,105c-25.2,9.2-53.1-3.9-62.3-29s3.8-53.2,29-62.4s53.1,3.9,62.3,29
		C131.2,67.9,118.2,95.8,93,105z M134.2,117.7l-1.6,7l-24.1-20.2c3.9-2.8,7.4-6,10.4-9.6l22.9,20.4L134.2,117.7z M62.1,20.1
		C40.5,28,29.3,52,37.2,73.6S69,106.4,90.6,98.5s32.8-31.8,24.9-53.4S83.7,12.3,62.1,20.1z M96,47l-3.3,6.8
		c-1.3,2.7-1.2,7.2,0.4,9.9l3.8,6.5c1.5,2.6,0.2,4.5-2.8,4.1l-7.5-1c-3-0.4-7.2,1.1-9.2,3.4l-5.1,5.5c-2.1,2.2-4.2,1.6-4.8-1.4
		l-1.3-7.4c-0.6-3-3.3-6.5-6-7.8l-6.9-3.1c-2.8-1.2-2.8-3.4-0.2-4.9l6.7-3.6c2.7-1.4,5.2-5.1,5.5-8.2l0.8-7.5c0.4-3,2.5-3.8,4.6-1.7
		l5.4,5.3c2.2,2.1,6.4,3.3,9.5,2.7l7.4-1.5C96,42.4,97.3,44.1,96,47z"/>
</g>
</svg>
