<?xml version="1.0" encoding="utf-8"?>
<!-- Generator: Adobe Illustrator 21.0.0, SVG Export Plug-In . SVG Version: 6.00 Build 0)  -->
<svg version="1.1" id="Layer_1" xmlns="http://www.w3.org/2000/svg" xmlns:xlink="http://www.w3.org/1999/xlink" x="0px" y="0px"
	 viewBox="0 0 170 170" style="enable-background:new 0 0 170 170;" xml:space="preserve">
<g>
	<path d="M118.8,106c12.8-7,22.7-19.1,26.8-34.2c8-29.6-9.7-60.2-39.2-68.1s-60.2,9.7-68.1,39.3c-4.2,15.8-1.1,32,7.3,44.8
		l-34.8,34.8L33,130l8,21.8l37.1-38.3l13,51.8l17.9-14.9l22.9,4.8L118.8,106L118.8,106z M43.8,128.2l-2.2-6.8l-7.8-1.9L54.1,98
		c3.4,3.2,7.3,6,11.6,8.3L43.8,128.2z M79.4,104.4C53.5,97.5,38.1,70.8,45,44.9s33.7-41.4,59.5-34.5s41.3,33.6,34.4,59.5
		C132,95.9,105.3,111.3,79.4,104.4z M105.8,138.5l-5.3,4.8L92.4,113c4.8-0.1,9.5-0.7,14.1-1.9l7,29.8L105.8,138.5z M102.7,17.2
		c-22.2-6-45.1,7.3-51.1,29.5s7.3,45.1,29.5,51.1s45.1-7.3,51.1-29.5C138.2,46,125,23.1,102.7,17.2z M115.1,58.6l-6.6,3.7
		c-2.7,1.5-5.1,5.2-5.3,8.3l-0.7,7.5c-0.3,3-2.4,3.8-4.6,1.8l-5.6-5.1c-2.2-2.1-6.5-3.2-9.5-2.5l-7.4,1.6c-3,0.7-4.4-1.1-3.1-3.8
		l3.2-6.8c1.3-2.8,1-7.2-0.5-9.9l-3.8-6.5c-1.6-2.6-0.4-4.4,2.7-4.2l7.5,0.9c3,0.4,7.2-1.2,9.2-3.5l4.9-5.7c2.1-2.2,4.2-1.7,4.7,1.3
		l1.4,7.4c0.7,3,3.4,6.4,6.2,7.7l7,3C117.7,54.8,117.8,57,115.1,58.6z"/>
</g>
</svg>
